<?xml version="1.0" standalone="no"?>
<!DOCTYPE svg PUBLIC "-//W3C//DTD SVG 20010904//EN"
 "http://www.w3.org/TR/2001/REC-SVG-20010904/DTD/svg10.dtd">
<svg version="1.0" xmlns="http://www.w3.org/2000/svg"
 width="2048.000000pt" height="2048.000000pt" viewBox="0 0 2048.000000 2048.000000"
 preserveAspectRatio="xMidYMid meet">
<metadata>
Created by potrace 1.14, written by Peter Selinger 2001-2017
</metadata>
<g transform="translate(0.000000,2048.000000) scale(0.100000,-0.100000)"
fill="#000000" stroke="none">
<path d="M9839 20436 c-2 -2 -67 -7 -144 -10 -77 -4 -160 -9 -185 -11 -25 -2
-79 -6 -120 -10 -41 -3 -93 -7 -115 -10 -22 -2 -69 -7 -105 -10 -36 -4 -76 -8
-90 -10 -14 -2 -52 -6 -85 -9 -33 -4 -67 -9 -75 -11 -8 -2 -40 -6 -71 -10 -31
-3 -67 -8 -80 -10 -13 -3 -42 -7 -64 -10 -22 -3 -51 -7 -65 -10 -14 -2 -65
-11 -115 -19 -90 -15 -129 -22 -175 -31 -14 -3 -36 -7 -50 -10 -77 -15 -135
-27 -220 -45 -52 -12 -106 -23 -120 -26 -30 -6 -304 -75 -410 -103 -181 -47
-555 -166 -775 -246 -55 -20 -118 -43 -140 -51 -22 -8 -49 -18 -60 -24 -11 -5
-78 -32 -150 -61 -71 -28 -150 -60 -175 -71 -25 -11 -58 -26 -75 -33 -187 -79
-575 -269 -787 -384 -584 -318 -1185 -726 -1653 -1120 -49 -42 -98 -83 -109
-91 -10 -8 -24 -20 -31 -27 -7 -6 -34 -30 -61 -54 -42 -35 -138 -122 -258
-232 -109 -100 -440 -435 -561 -568 -385 -420 -751 -896 -1075 -1399 -69 -107
-280 -458 -280 -466 0 -1 -15 -29 -34 -61 -69 -118 -356 -680 -356 -698 0 -2
-15 -36 -34 -77 -62 -134 -174 -401 -233 -558 -39 -104 -114 -311 -128 -355
-54 -168 -89 -277 -100 -315 -7 -25 -30 -101 -50 -170 -34 -117 -130 -495
-140 -550 -3 -14 -20 -99 -39 -190 -19 -91 -37 -178 -39 -195 -3 -16 -14 -84
-26 -150 -11 -66 -23 -138 -26 -160 -3 -22 -7 -53 -10 -70 -3 -16 -7 -47 -10
-67 -3 -21 -7 -53 -9 -70 -3 -18 -8 -58 -11 -88 -3 -30 -8 -66 -10 -80 -2 -14
-7 -59 -11 -100 -3 -41 -8 -88 -10 -105 -1 -16 -5 -64 -9 -105 -3 -41 -8 -97
-10 -125 -14 -168 -20 -395 -20 -720 0 -392 7 -583 30 -853 3 -35 8 -89 10
-120 3 -32 7 -77 10 -102 3 -25 7 -63 10 -85 2 -22 7 -58 9 -80 3 -21 13 -95
22 -163 8 -69 17 -134 20 -145 2 -12 6 -37 9 -57 5 -34 7 -46 19 -110 3 -14 7
-41 10 -60 5 -34 43 -235 53 -275 2 -11 7 -33 9 -50 21 -120 115 -497 179
-720 115 -399 308 -938 445 -1240 10 -22 39 -87 65 -145 48 -107 258 -530 312
-630 95 -174 145 -261 241 -420 116 -193 292 -464 304 -468 4 -2 8 -8 8 -12 0
-5 33 -54 73 -110 39 -56 79 -111 87 -123 45 -66 325 -432 350 -457 3 -3 34
-41 70 -85 36 -44 79 -96 96 -115 17 -19 68 -78 114 -130 158 -182 530 -565
680 -700 19 -17 55 -50 80 -74 25 -23 83 -75 130 -116 47 -41 87 -77 90 -80 7
-8 300 -250 341 -282 272 -212 468 -353 724 -522 182 -120 451 -286 465 -286
5 0 10 -4 10 -10 0 -5 4 -10 10 -10 5 0 32 -14 60 -30 28 -17 81 -47 118 -67
37 -20 87 -47 112 -61 77 -42 442 -225 510 -256 36 -17 103 -47 150 -69 117
-53 137 -62 200 -87 30 -12 69 -28 85 -35 226 -99 774 -291 995 -350 20 -5
161 -47 185 -55 26 -8 176 -47 275 -70 80 -19 177 -41 200 -46 14 -3 53 -12
88 -20 34 -9 73 -17 85 -19 12 -2 72 -13 132 -24 61 -12 126 -24 145 -27 19
-2 55 -9 80 -14 55 -11 115 -21 155 -26 45 -5 167 -22 215 -29 14 -2 50 -7 80
-10 30 -3 66 -8 80 -10 14 -2 59 -7 100 -10 41 -4 87 -8 101 -10 14 -2 66 -6
115 -10 49 -3 105 -8 124 -10 121 -13 346 -19 700 -20 351 0 509 4 735 20 151
10 224 16 255 20 19 2 60 7 90 10 30 3 71 8 90 10 19 2 55 7 80 9 92 11 147
18 235 32 95 14 144 21 210 30 22 3 47 7 55 9 8 3 53 11 100 20 47 8 96 17
110 20 14 3 41 8 60 11 27 4 314 69 440 99 14 3 237 61 270 70 8 2 85 24 170
50 85 25 162 48 170 50 158 40 764 269 1055 398 341 151 788 380 1030 527 33
20 80 48 105 62 175 99 558 355 810 542 121 90 357 272 370 286 3 3 28 23 55
45 28 22 55 44 61 50 6 5 32 28 59 50 26 22 67 56 89 76 23 20 68 60 101 89
194 170 570 543 753 746 30 32 66 73 81 89 38 41 208 241 252 295 88 108 136
168 164 204 58 76 200 264 217 288 9 12 31 43 49 68 141 194 414 615 515 793
19 34 45 78 56 97 114 192 343 647 459 913 96 219 90 206 144 342 26 66 53
134 60 150 7 17 20 53 30 80 9 28 21 59 26 70 4 11 17 47 28 80 12 33 28 80
37 105 118 331 279 932 348 1295 43 223 42 220 51 275 4 25 9 54 11 65 12 75
34 219 39 264 4 30 8 61 10 70 4 21 14 103 20 171 4 30 8 69 10 85 2 17 7 62
10 100 3 39 8 95 11 125 21 235 29 460 29 840 0 425 -11 679 -40 965 -3 22 -7
65 -10 95 -3 30 -8 80 -11 110 -3 30 -7 66 -10 80 -4 24 -7 46 -19 150 -3 25
-15 101 -26 170 -11 69 -22 139 -25 155 -24 153 -93 485 -141 680 -14 55 -26
107 -28 115 -9 44 -57 218 -85 310 -17 58 -33 112 -35 120 -6 26 -82 262 -115
355 -17 50 -43 124 -57 165 -25 73 -198 510 -227 573 -8 18 -33 72 -55 120
-23 49 -41 91 -41 93 0 9 -189 389 -253 509 -143 268 -437 765 -459 773 -4 2
-8 8 -8 13 0 19 -185 284 -390 559 -133 178 -166 222 -195 254 -6 6 -26 31
-45 56 -46 60 -63 80 -77 94 -6 7 -35 42 -64 77 -29 35 -68 80 -85 99 -18 19
-41 44 -51 56 -237 276 -643 679 -972 964 -35 30 -69 60 -75 65 -25 23 -177
147 -261 214 -49 39 -95 75 -101 80 -40 33 -341 252 -449 327 -207 144 -535
352 -685 436 -25 14 -103 58 -175 98 -143 81 -472 248 -635 323 -58 27 -127
59 -155 72 -27 12 -117 51 -200 85 -82 34 -159 66 -170 71 -340 146 -1101 382
-1530 473 -11 3 -54 12 -95 21 -41 9 -90 19 -109 21 -19 2 -37 6 -41 9 -4 2
-22 7 -41 10 -32 5 -51 9 -109 20 -28 6 -271 45 -310 50 -14 2 -38 6 -55 9
-16 3 -52 8 -80 11 -27 3 -61 8 -75 10 -40 6 -100 13 -165 20 -33 3 -71 8 -85
10 -14 2 -56 7 -95 10 -38 3 -90 7 -115 10 -25 2 -85 7 -135 11 -49 3 -112 8
-140 10 -63 5 -981 14 -986 10z"/>
</g>
</svg>
